<svg width="12" height="12" viewBox="0 0 12 12" fill="none" xmlns="http://www.w3.org/2000/svg">
<path d="M6.00586 4.57734C5.65547 4.57734 5.32735 4.71328 5.07891 4.96171C4.83165 5.21015 4.69454 5.53828 4.69454 5.88867C4.69454 6.23906 4.83165 6.56718 5.07891 6.81562C5.32735 7.06288 5.65547 7.2 6.00586 7.2C6.35626 7.2 6.68438 7.06288 6.93282 6.81562C7.18008 6.56718 7.31719 6.23906 7.31719 5.88867C7.31719 5.53828 7.18008 5.21015 6.93282 4.96171C6.81147 4.83944 6.66704 4.74249 6.50791 4.6765C6.34879 4.61052 6.17813 4.57681 6.00586 4.57734ZM10.8375 7.3371L10.0711 6.68203C10.1074 6.45937 10.1262 6.23203 10.1262 6.00585C10.1262 5.77968 10.1074 5.55117 10.0711 5.32968L10.8375 4.6746C10.8954 4.62504 10.9368 4.55903 10.9563 4.48534C10.9758 4.41166 10.9723 4.3338 10.9465 4.2621L10.9359 4.23164C10.725 3.64182 10.409 3.0951 10.0031 2.61796L9.98204 2.59335C9.93275 2.53541 9.86707 2.49375 9.79364 2.47388C9.72021 2.454 9.64249 2.45684 9.57071 2.48203L8.61915 2.8207C8.26758 2.53242 7.87618 2.30507 7.45196 2.14687L7.26797 1.15195C7.25409 1.077 7.21774 1.00804 7.16373 0.954249C7.10973 0.900455 7.04063 0.864365 6.96563 0.850775L6.93399 0.844916C6.32462 0.73476 5.68243 0.73476 5.07305 0.844916L5.04141 0.850775C4.96641 0.864365 4.89731 0.900455 4.84331 0.954249C4.78931 1.00804 4.75295 1.077 4.73907 1.15195L4.55391 2.15156C4.13371 2.31102 3.74226 2.53781 3.39493 2.82304L2.43633 2.48203C2.36457 2.45664 2.28679 2.4537 2.21332 2.47359C2.13985 2.49347 2.07417 2.53525 2.02501 2.59335L2.00391 2.61796C1.59879 3.09561 1.28282 3.64219 1.0711 4.23164L1.06055 4.2621C1.00782 4.40859 1.05118 4.57265 1.16954 4.6746L1.94532 5.33671C1.90899 5.55703 1.89141 5.78203 1.89141 6.00468C1.89141 6.22968 1.90899 6.45468 1.94532 6.67265L1.17188 7.33476C1.11399 7.38432 1.07255 7.45034 1.05308 7.52402C1.03361 7.5977 1.03704 7.67557 1.0629 7.74726L1.07344 7.77773C1.28555 8.36718 1.59844 8.9121 2.00626 9.3914L2.02735 9.41601C2.07663 9.47396 2.14231 9.51561 2.21574 9.53549C2.28917 9.55536 2.3669 9.55252 2.43868 9.52734L3.39727 9.18632C3.74649 9.47343 4.13555 9.70078 4.55626 9.85781L4.74141 10.8574C4.75529 10.9324 4.79165 11.0013 4.84565 11.0551C4.89966 11.1089 4.96875 11.145 5.04376 11.1586L5.0754 11.1644C5.69077 11.2752 6.32096 11.2752 6.93633 11.1644L6.96797 11.1586C7.04298 11.145 7.11207 11.1089 7.16608 11.0551C7.22008 11.0013 7.25644 10.9324 7.27032 10.8574L7.4543 9.86249C7.87852 9.70312 8.26993 9.47695 8.62149 9.18867L9.57305 9.52734C9.64481 9.55272 9.72259 9.55566 9.79607 9.53578C9.86954 9.51589 9.93522 9.47412 9.98438 9.41601L10.0055 9.3914C10.4133 8.90976 10.7262 8.36718 10.9383 7.77773L10.9488 7.74726C10.9992 7.60195 10.9559 7.43906 10.8375 7.3371ZM6.00586 7.94882C4.86797 7.94882 3.94571 7.02656 3.94571 5.88867C3.94571 4.75078 4.86797 3.82851 6.00586 3.82851C7.14376 3.82851 8.06602 4.75078 8.06602 5.88867C8.06602 7.02656 7.14376 7.94882 6.00586 7.94882Z" fill="#AEB4BA"/>
</svg>
